<?xml version="1.0" encoding="utf-8"?>
<!-- Generator: Adobe Illustrator 22.0.1, SVG Export Plug-In . SVG Version: 6.00 Build 0)  -->
<svg version="1.1" id="レイヤー_1" xmlns="http://www.w3.org/2000/svg" xmlns:xlink="http://www.w3.org/1999/xlink" x="0px"
	 y="0px" width="236px" height="34px" viewBox="0 0 236 34" style="enable-background:new 0 0 236 34;" xml:space="preserve">
<style type="text/css">
	.st0{fill:#FFFFFF;}
	.st1{fill:#999999;}
</style>
<g id="XMLID_373_">
	<g id="XMLID_2411_">
		<path id="XMLID_2414_" class="st0" d="M174.1,18.8h-6.7v-0.6h0.6l0.6-0.2V9.7l-0.2-0.2h-1.1V8.9h7v2h-0.7V9.9l-1.6-0.5h-2v3.8h2.5
			l0.6-0.2v-0.7h0.7V15h-0.7v-0.8l-0.6-0.2h-2.5v3.6c0.8,0.5,1.8,0.5,2.9,0.5l1.8-1.8l0.4,0.3C175,17.3,174.6,18.2,174.1,18.8z"/>
		<path id="XMLID_2412_" class="st0" d="M184.9,18.8h-6.3v-0.6h0.6l0.6-0.2V9.7l-0.2-0.2h-1.1V8.9h4.1v0.6h-0.7l-0.6,0.2v7.9
			c0.7,0.4,1.5,0.5,2.5,0.5l1.8-1.8l0.4,0.3C185.8,17.3,185.4,18.2,184.9,18.8z"/>
	</g>
	<rect id="XMLID_2431_" x="90.5" y="21.6" class="st0" width="95.4" height="0.7"/>
	<path id="XMLID_2428_" class="st0" d="M98.1,18.7V18h1.2l0.3-0.3l-1-3h-4.3l-1.1,3l0.3,0.3h1.2v0.8h-4V18h0.8l0.6-0.2l3.9-10.5V6.8
		h1.6l3.9,10.9l0.6,0.2h0.8v0.8H98.1z M96.5,8.6l-1.9,5.2h3.7L96.5,8.6z"/>
	<path id="XMLID_2425_" class="st0" d="M113.1,18.8c-1,0-1.7-0.3-2.3-1.3l-2.1-3.1h-1.1v3.5l0.2,0.2h1v0.6h-3.9v-0.6h0.6l0.6-0.2
		V9.7L106,9.5h-1.1V8.9h3.2c2.2,0,4,0.6,4,2.4c0,1.4-1.1,2.3-2,2.8l2.2,3.2c0.4,0.6,0.7,0.9,1.3,0.9h0.5v0.6H113.1z M107.6,9.5v4.3
		h2c0.5-0.5,1.1-1.3,1.1-2.3C110.6,10.3,109.6,9.5,107.6,9.5z"/>
	<path id="XMLID_2423_" class="st0" d="M122.8,11V9.9l-1.3-0.3h-1.4v8.4l0.2,0.2h1.2v0.6h-4.1v-0.6h0.7l0.6-0.2V9.6h-1.4l-1.3,0.3
		V11h-0.7V8.6l0.8,0.3h6.7l0.8-0.3V11H122.8z"/>
	<path id="XMLID_2421_" class="st0" d="M138.2,18.7V18h0.6l0.8-0.2V13H134v4.8l0.2,0.2h1.2v0.8h-4.6V18h0.8l0.8-0.2V7.8L132,7.6
		h-1.3V6.8h4.6v0.8h-0.6L134,7.8v4.3h5.6V7.8l-0.2-0.2h-1.2V6.8h4.6v0.8h-0.8l-0.8,0.2v9.9l0.2,0.2h1.3v0.8H138.2z"/>
	<path id="XMLID_2418_" class="st0" d="M149.8,19.1c-2.5,0-5.4-1.6-5.4-5.1c0-3,3-5.5,5.2-5.5c2.5,0,5.4,1.6,5.4,5.1
		C155,16.6,152.1,19.1,149.8,19.1z M148.7,9.3c-1.7,0.8-2.8,2.5-2.8,4.5c0,3,2.1,4.5,4.8,4.5c1.7-0.8,2.8-2.5,2.8-4.5
		C153.5,10.8,151.4,9.3,148.7,9.3z"/>
	<path id="XMLID_2416_" class="st0" d="M164.1,11V9.9l-1.3-0.3h-1.4v8.4l0.2,0.2h1.2v0.6h-4.1v-0.6h0.7l0.6-0.2V9.6h-1.4l-1.3,0.3
		V11h-0.7V8.6l0.8,0.3h6.7l0.8-0.3V11H164.1z"/>
</g>
<g>
	<path class="st0" d="M107.4,28.6c0.5,0,0.9,0.2,1.3,0.5c0.3,0.3,0.5,0.7,0.5,1.2s-0.2,0.9-0.5,1.2c-0.3,0.3-0.8,0.5-1.3,0.5
		c-0.5,0-0.9-0.2-1.3-0.5c-0.3-0.3-0.5-0.7-0.5-1.2c0-0.5,0.2-0.9,0.5-1.2C106.5,28.8,106.9,28.6,107.4,28.6z M107.5,29
		c-0.4,0-0.7,0.1-0.9,0.4s-0.4,0.5-0.4,0.9c0,0.4,0.1,0.7,0.4,0.9c0.2,0.2,0.6,0.4,0.9,0.4c0.4,0,0.7-0.1,0.9-0.4
		c0.2-0.2,0.4-0.5,0.4-0.9c0-0.4-0.1-0.7-0.4-0.9C108.1,29.2,107.8,29,107.5,29z"/>
	<path class="st0" d="M112.5,30.6l-0.4-0.2c-0.2-0.1-0.4-0.3-0.5-0.4c-0.1-0.1-0.1-0.3-0.1-0.5c0-0.3,0.1-0.5,0.3-0.6
		c0.2-0.2,0.4-0.2,0.7-0.2c0.3,0,0.5,0.1,0.8,0.2v0.5c-0.2-0.2-0.5-0.3-0.8-0.3c-0.2,0-0.3,0-0.4,0.1s-0.2,0.2-0.2,0.3
		c0,0.1,0,0.2,0.1,0.3c0.1,0.1,0.2,0.2,0.4,0.3l0.4,0.2c0.4,0.2,0.6,0.6,0.6,0.9c0,0.3-0.1,0.5-0.3,0.7c-0.2,0.2-0.4,0.3-0.7,0.3
		c-0.3,0-0.6-0.1-0.9-0.3v-0.6c0.3,0.3,0.6,0.5,0.9,0.5c0.1,0,0.3,0,0.4-0.1c0.1-0.1,0.1-0.2,0.1-0.3C113,31,112.8,30.8,112.5,30.6z
		"/>
	<path class="st0" d="M116.7,28.6h0.3l1.5,3.4H118l-0.4-1h-1.4l-0.4,1h-0.5L116.7,28.6z M117.4,30.6l-0.5-1.2l-0.5,1.2H117.4z"/>
	<path class="st0" d="M122.2,28.6h0.6l-1.4,1.6l1.8,1.8h-0.7l-1.7-1.7V32h-0.5v-3.3h0.5v1.5L122.2,28.6z"/>
	<path class="st0" d="M126.1,28.6h0.3l1.5,3.4h-0.5l-0.4-1h-1.4l-0.4,1h-0.5L126.1,28.6z M126.8,30.6l-0.5-1.2l-0.5,1.2H126.8z"/>
	<path class="st0" d="M133.8,32h-1.1v-3.3h0.9c0.3,0,0.5,0,0.6,0.1c0.2,0.1,0.3,0.2,0.4,0.3c0.1,0.1,0.1,0.3,0.1,0.5
		c0,0.3-0.2,0.6-0.5,0.7c0.2,0,0.4,0.1,0.6,0.3c0.1,0.2,0.2,0.3,0.2,0.6c0,0.2,0,0.3-0.1,0.5c-0.1,0.1-0.2,0.2-0.4,0.3
		C134.3,31.9,134.1,32,133.8,32z M133.6,29.1h-0.4v1h0.3c0.3,0,0.4,0,0.5-0.1c0.1-0.1,0.2-0.2,0.2-0.4
		C134.2,29.2,134,29.1,133.6,29.1z M133.6,30.5h-0.4v1.1h0.5c0.3,0,0.4,0,0.5-0.1c0.1,0,0.2-0.1,0.2-0.2c0.1-0.1,0.1-0.2,0.1-0.3
		c0-0.1,0-0.2-0.1-0.3c-0.1-0.1-0.1-0.1-0.3-0.2C134,30.5,133.8,30.5,133.6,30.5z"/>
	<path class="st0" d="M138.1,28.6h0.3l1.5,3.4h-0.5l-0.4-1h-1.4l-0.4,1h-0.5L138.1,28.6z M138.8,30.6l-0.5-1.2l-0.5,1.2H138.8z"/>
	<path class="st0" d="M143.5,28.6h0.6l-1.2,1.6V32h-0.5v-1.8l-1.2-1.6h0.6l0.9,1.2L143.5,28.6z"/>
	<path class="st0" d="M148.4,28.6h2.8v0.4H150V32h-0.5v-2.9h-1.1V28.6z"/>
	<path class="st0" d="M154.5,28.6c0.5,0,0.9,0.2,1.3,0.5c0.3,0.3,0.5,0.7,0.5,1.2s-0.2,0.9-0.5,1.2c-0.3,0.3-0.8,0.5-1.3,0.5
		c-0.5,0-0.9-0.2-1.3-0.5c-0.3-0.3-0.5-0.7-0.5-1.2c0-0.5,0.2-0.9,0.5-1.2C153.5,28.8,154,28.6,154.5,28.6z M154.5,29
		c-0.4,0-0.7,0.1-0.9,0.4s-0.4,0.5-0.4,0.9c0,0.4,0.1,0.7,0.4,0.9c0.2,0.2,0.6,0.4,0.9,0.4c0.4,0,0.7-0.1,0.9-0.4
		c0.2-0.2,0.4-0.5,0.4-0.9c0-0.4-0.1-0.7-0.4-0.9C155.2,29.2,154.9,29,154.5,29z"/>
	<path class="st0" d="M162.3,28.6h0.5l-1.4,3.4h-0.1l-1.1-2.7l-1.1,2.7H159l-1.3-3.4h0.5l0.9,2.3l0.9-2.3h0.5l0.9,2.3L162.3,28.6z"
		/>
	<path class="st0" d="M164.5,28.6h1.9v0.4H165v1h1.4v0.4H165v1h1.5V32h-1.9V28.6z"/>
	<path class="st0" d="M168.5,32v-3.3h0.8c0.3,0,0.6,0.1,0.8,0.3c0.2,0.2,0.3,0.4,0.3,0.7c0,0.2,0,0.4-0.1,0.5
		c-0.1,0.1-0.2,0.2-0.4,0.3c0.1,0.1,0.2,0.2,0.3,0.3c0.1,0.1,0.2,0.3,0.4,0.6c0.1,0.2,0.2,0.3,0.3,0.4L171,32h-0.6l-0.1-0.2
		c0,0,0,0,0,0l-0.1-0.1l-0.1-0.2l-0.2-0.3c-0.1-0.1-0.2-0.2-0.3-0.3s-0.2-0.1-0.2-0.2c-0.1,0-0.2-0.1-0.3-0.1h-0.1V32H168.5z
		 M169.1,29h-0.1v1.1h0.2c0.2,0,0.4,0,0.5-0.1c0.1,0,0.2-0.1,0.2-0.2c0.1-0.1,0.1-0.2,0.1-0.3c0-0.1,0-0.2-0.1-0.3
		c-0.1-0.1-0.1-0.1-0.2-0.2C169.5,29.1,169.3,29,169.1,29z"/>
</g>
<g id="XMLID_18_">
	<path id="XMLID_19_" class="st0" d="M65.3,32.7v-2h3.2l0.9-0.9l-2.7-8.2H55.1l-2.9,8.2l0.9,0.9h3.2v2H45.5v-2h2l1.7-0.6L59.8,1.8
		V0.6h4.4l10.5,29.4l1.7,0.6h2v2H65.3z M61.1,5.3l-5.1,14h9.9L61.1,5.3z"/>
</g>
<g>
	<path class="st1" d="M83.5,22.3c-0.7,0.8-1.4,1.4-2.3,1.8c-0.8,0.4-1.7,0.7-2.5,0.7c-0.8,0-1.5-0.2-2-0.5c-0.6-0.3-1-0.8-1.3-1.2
		h-0.1c-0.3,1.1-0.8,2.2-1.5,3.4c-0.8,1.2-1.7,2.3-2.7,3.3c-1,1-2.2,1.8-3.5,2.5c-1.3,0.7-2.5,1-3.9,1c-1.2,0-2.1-0.3-2.7-1
		c-0.6-0.7-0.9-1.6-0.9-2.8c0-0.6,0.2-1.3,0.5-2.1c0.3-0.8,0.7-1.6,1.3-2.4c0.5-0.8,1.2-1.6,1.9-2.4c0.7-0.8,1.5-1.5,2.4-2.1
		c0.9-0.6,1.8-1.1,2.7-1.5c1-0.4,1.9-0.6,2.9-0.6c1.1,0,2,0.3,2.7,1c0.6,0.7,1,1.5,1,2.6c0.1,0.6,0.4,1.2,0.9,1.8
		c0.5,0.5,1.3,0.8,2.2,0.8c0.8,0,1.6-0.2,2.4-0.6c0.7-0.4,1.4-1,2.1-1.6L83.5,22.3z M62.5,30.3c0,0.7,0.1,1.3,0.4,1.7
		c0.3,0.4,0.7,0.6,1.3,0.6c0.8,0,1.5-0.2,2.2-0.6c0.7-0.4,1.5-0.9,2.1-1.6c0.7-0.7,1.3-1.4,1.9-2.2c0.6-0.8,1.1-1.7,1.5-2.6
		c0.4-0.9,0.8-1.8,1-2.6c0.3-0.9,0.4-1.6,0.4-2.3c0-0.6-0.1-1.1-0.4-1.5c-0.3-0.4-0.7-0.6-1.4-0.6c-0.6,0-1.2,0.2-1.9,0.6
		c-0.7,0.4-1.3,0.9-2,1.5c-0.7,0.6-1.3,1.3-1.9,2.1c-0.6,0.8-1.2,1.6-1.7,2.5c-0.5,0.9-0.9,1.7-1.2,2.6
		C62.6,28.8,62.5,29.6,62.5,30.3z"/>
</g>
</svg>
